<svg xmlns="http://www.w3.org/2000/svg" viewBox="0 0 96 96">
  <defs><linearGradient id="g" x1="14" y1="10" x2="86" y2="86"><stop stop-color="#9B5CFF"/><stop offset=".55" stop-color="#00D4FF"/><stop offset="1" stop-color="#67F7B8"/></linearGradient></defs>
  <rect width="96" height="96" rx="28" fill="#070914"/>
  <path d="M28 59c5 8 14 12 25 12 13 0 22-7 22-18 0-10-6-14-19-17l-9-2c-6-1-8-3-8-6 0-4 4-7 11-7 6 0 11 2 16 7l7-10C66 11 58 8 49 8 36 8 27 16 27 28c0 10 6 15 19 18l9 2c6 1 8 3 8 6 0 4-4 7-11 7-8 0-14-3-18-9l-6 7Z" fill="url(#g)"/>
  <circle cx="73" cy="24" r="5" fill="#67F7B8"/>
</svg>
