<svg width="180" height="180" viewBox="0 0 180 180" fill="none" xmlns="http://www.w3.org/2000/svg">
  <rect width="180" height="180" rx="44" fill="#0054FA"/>
  <path d="M0 130C38 96 76 100 116 124C146 142 166 137 180 120V180H0V130Z" fill="#D7FF32"/>
  <circle cx="140" cy="42" r="21" fill="#FFF26D"/>
  <rect x="28" y="28" width="124" height="124" rx="32" fill="#050505" fill-opacity="0.92"/>
  <path d="M49 69C49 48 67 37 92 37C111 37 125 43 137 54L122 72C114 64 104 59 91 59C80 59 74 64 74 70C74 78 86 81 101 85C123 91 141 101 141 124C141 145 122 159 91 159C67 159 50 150 36 137L52 118C62 129 74 136 92 136C106 136 114 131 114 123C114 115 103 111 88 107C67 101 49 92 49 69Z" fill="white"/>
  <path d="M125 88H150V112H125V88Z" fill="#D7FF32"/>
</svg>
